#!OML:ASF C:\ViconDB\ViconDB\414\Spring2016\041811\Spring2016.ASF
:FULLY-SPECIFIED
:DEGREES
521
root 8.36378 17.7443 -47.3097 -182.664 -15.954 -168.345
lowerback -1.4235 -0.429505 -1.12229
upperback 0.111915 -0.616288 2.43996
thorax 0.951352 -0.337407 3.12065
lowerneck -8.90784 -2.17636 -10.4292
upperneck 25.7313 -10.9888 23.3407
head 11.7662 -5.02398 9.13182
rclavicle -2.40342e-014 -4.77083e-014
rhumerus -90.5394 36.3347 -121.046
rradius 88.2512
rwrist 21.3184
rhand -44.7584 -4.99619
rfingers 7.12502
rthumb -17.5512 -34.224
lclavicle -2.40342e-014 -4.77083e-014
lhumerus -83.7053 -43.4599 120.721
lradius 78.8038
lwrist -28.5187
lhand -42.9756 -3.13263
lfingers 7.12502
lthumb -15.8349 26.2398
rfemur 266.945 -624.817 -37.2709
rtibia 40.4736
rfoot -473.57 -43.8067
rtoes 2.33771e-013
lfemur -45.2765 2.12666 -6.03688
ltibia 47.0879
lfoot -10.6935 -2.71519
ltoes -6.99722e-014
522
root 8.34699 17.748 -47.5007 -182.448 -15.9121 -168.148
lowerback -1.6924 -0.279636 -1.23614
upperback 0.0426185 -0.409429 2.36811
thorax 1.01836 -0.233002 3.11451
lowerneck -8.80053 -2.28023 -10.6402
upperneck 25.4277 -11.2938 23.9778
head 11.7623 -5.17034 9.38693
rclavicle 2.22934e-014 -7.95139e-016
rhumerus -90.715 36.2895 -121.188
rradius 88.2511
rwrist 21.1503
rhand -44.8875 -5.21249
rfingers 7.12502
rthumb -17.6754 -34.4291
lclavicle 2.22934e-014 -7.95139e-016
lhumerus -83.6061 -43.5912 120.716
lradius 78.8528
lwrist -28.8381
lhand -43.0204 -3.00619
lfingers 7.12502
lthumb -15.878 26.3628
rfemur 271.001 -624.216 -33.1576
rtibia 39.8876
rfoot -472.666 -44.3148
rtoes -1.11319e-013
lfemur -45.4668 2.49639 -6.06589
ltibia 43.812
lfoot -10.7324 -2.59516
ltoes -5.88403e-014
523
root 8.33046 17.7636 -47.6902 -182.315 -15.8345 -168.068
lowerback -1.89326 -0.274306 -1.59862
upperback 0.0212879 -0.388091 2.28751
thorax 1.10964 -0.222866 3.23581
lowerneck -8.67789 -2.29854 -10.3349
upperneck 25.2641 -11.4314 24.0923
head 11.6994 -5.22135 9.33931
rclavicle -1.9953e-014 3.18055e-015
rhumerus -90.9687 36.5706 -121.631
rradius 88.1096
rwrist 20.9726
rhand -44.9757 -5.31161
rfingers 7.12502
rthumb -17.7602 -34.5206
lclavicle -1.9953e-014 3.18055e-015
lhumerus -83.2907 -43.3311 120.356
lradius 78.9957
lwrist -28.6185
lhand -42.5197 -2.85924
lfingers 7.12502
lthumb -15.3957 26.5475
rfemur 275.963 -623.363 -28.3303
rtibia 39.166
rfoot -471.788 -44.5659
rtoes 5.725e-014
lfemur -45.3959 2.7579 -6.1337
ltibia 40.5767
lfoot -10.6936 -2.39243
ltoes -1.66979e-013
524
root 8.3099 17.7766 -47.8776 -182.128 -15.8269 -167.951
lowerback -2.13715 -0.265001 -1.83233
upperback -0.0163838 -0.364969 2.23565
thorax 1.20733 -0.212277 3.31419
lowerneck -8.54308 -2.33576 -10.3973
upperneck 25.0314 -11.606 24.5014
head 11.6613 -5.31127 9.48787
rclavicle -1.70303e-014 3.18055e-014
rhumerus -91.332 36.8317 -122.05
rradius 88.0924
rwrist 20.9026
rhand -45.1444 -5.39445
rfingers 7.12502
rthumb -17.9226 -34.5886
lclavicle -1.70303e-014 3.18055e-014
lhumerus -82.7952 -43.0546 119.959
lradius 78.9588
lwrist -28.7836
lhand -42.5087 -3.0502
lfingers 7.12502
lthumb -15.3852 26.3573
rfemur 282.361 -622.37 -22.055
rtibia 38.3722
rfoot -470.372 -45.0898
rtoes 6.36111e-015
lfemur -45.325 2.43138 -5.83817
ltibia 37.4551
lfoot -10.8691 -1.91259
ltoes 1.46306e-013
525
root 8.28837 17.7947 -48.0642 -182.067 -15.7255 -167.736
lowerback -2.29854 -0.235917 -1.98985
upperback -0.0190587 -0.318754 2.20989
thorax 1.29255 -0.190603 3.3777
lowerneck -8.49543 -2.36896 -10.3004
upperneck 24.9368 -11.8055 24.7688
head 11.6827 -5.40194 9.54824
rclavicle -5.94615e-014 -3.65764e-014
rhumerus -91.5883 37.0956 -122.453
rradius 87.9897
rwrist 20.807
rhand -45.3161 -5.69489
rfingers 7.12502
rthumb -18.0878 -34.8739
lclavicle -5.94615e-014 -3.65764e-014
lhumerus -82.2403 -42.7999 119.421
lradius 78.9274
lwrist -29.3593
lhand -42.0224 -2.59228
lfingers 7.12502
lthumb -14.9167 26.8506
rfemur 289.308 -620.938 -15.1752
rtibia 37.496
rfoot -468.242 -45.1576
rtoes 3.33958e-014
lfemur -45.004 1.83674 -5.22061
ltibia 34.5718
lfoot -11.313 -1.30061
ltoes 2.79889e-013
526
root 8.26444 17.8185 -48.2529 -181.997 -15.6235 -167.538
lowerback -2.48277 -0.11481 -2.03528
upperback -0.0201632 -0.150501 2.13138
thorax 1.38226 -0.106802 3.32802
lowerneck -8.37908 -2.45102 -10.3652
upperneck 24.6667 -12.0734 25.263
head 11.6692 -5.53359 9.71985
rclavicle 3.67317e-014 -1.11319e-014
rhumerus -91.6561 37.0704 -122.576
rradius 87.9804
rwrist 20.4317
rhand -45.274 -5.35269
rfingers 7.12502
rthumb -18.0473 -34.5354
lclavicle 3.67317e-014 -1.11319e-014
lhumerus -81.8937 -42.82 119.128
lradius 78.883
lwrist -29.9043
lhand -41.8093 -2.30169
lfingers 7.12502
lthumb -14.7114 27.1563
rfemur 295.387 -619.238 -9.189
rtibia 36.5861
rfoot -465.795 -45.1699
rtoes -7.31528e-014
lfemur -44.6486 0.73048 -4.2907
ltibia 31.9853
lfoot -11.946 -0.478168
ltoes -1.27222e-013
527
root 8.23635 17.8168 -48.439 -181.979 -15.5939 -167.26
lowerback -2.55631 -0.078971 -1.98936
upperback -0.0623836 -0.100478 2.05412
thorax 1.37626 -0.0800314 3.22406
lowerneck -8.34769 -2.45241 -10.1696
upperneck 24.6307 -12.2563 25.4951
head 11.7067 -5.61151 9.75167
rclavicle 9.72181e-015 0
rhumerus -91.8519 37.1218 -122.925
rradius 87.8908
rwrist 20.4662
rhand -45.1677 -5.21671
rfingers 7.12502
rthumb -17.945 -34.4088
lclavicle 9.72181e-015 0
lhumerus -81.5995 -42.748 118.783
lradius 78.8501
lwrist -29.8475
lhand -42.0107 -2.74321
lfingers 7.12502
lthumb -14.9054 26.7005
rfemur 300.086 -617.369 -4.37158
rtibia 35.6701
rfoot -463.36 -46.5167
rtoes 2.44903e-013
lfemur -44.254 -0.868983 -3.00889
ltibia 29.757
lfoot -12.7967 0.650447
ltoes -2.19458e-013
528
root 8.20688 17.8223 -48.6323 -181.971 -15.4159 -167.141
lowerback -2.68211 0.0473854 -2.1335
upperback -0.0224425 0.0752453 2.04405
thorax 1.47525 0.00548916 3.30218
lowerneck -8.39255 -2.62432 -10.3281
upperneck 24.5464 -12.5989 25.7686
head 11.8084 -5.77913 9.84945
rclavicle -2.37548e-014 7.95139e-015
rhumerus -91.917 37.1769 -122.931
rradius 87.8915
rwrist 20.179
rhand -45.1558 -5.15014
rfingers 7.12502
rthumb -17.9336 -34.3433
lclavicle -2.37548e-014 7.95139e-015
lhumerus -81.2044 -42.7458 118.65
lradius 78.8965
lwrist -29.3364
lhand -41.6436 -3.11878
lfingers 7.12502
lthumb -14.5517 26.3508
rfemur 303.951 -615.154 -0.538628
rtibia 34.7976
rfoot -460.184 -47.0551
rtoes 1.54257e-013
lfemur -43.7172 -2.72996 -1.65028
ltibia 27.922
lfoot -13.9309 2.13788
ltoes -2.09917e-013
